<?xml version="1.0" encoding="UTF-8"?>
<svg height="128px" viewBox="0 0 128 128" width="128px" xmlns="http://www.w3.org/2000/svg" xmlns:xlink="http://www.w3.org/1999/xlink">
    <linearGradient id="a" gradientTransform="matrix(0.196428 0 0 0.342105 2.597321 273.244812)" gradientUnits="userSpaceOnUse" x1="88.595886" x2="536.595886" y1="-449.394012" y2="-449.394012">
        <stop offset="0" stop-color="#c64600"/>
        <stop offset="0.0500001" stop-color="#ffa348"/>
        <stop offset="0.099807" stop-color="#e66100"/>
        <stop offset="0.900001" stop-color="#e66100"/>
        <stop offset="0.950001" stop-color="#ffa348"/>
        <stop offset="1" stop-color="#c64600"/>
    </linearGradient>
    <clipPath id="b">
        <rect height="128" width="128"/>
    </clipPath>
    <clipPath id="c">
        <rect height="128" width="128"/>
    </clipPath>
    <filter id="d" height="100%" width="100%" x="0%" y="0%">
        <feColorMatrix in="SourceGraphic" type="matrix" values="0 0 0 0 1 0 0 0 0 1 0 0 0 0 1 0 0 0 1 0"/>
    </filter>
    <mask id="e">
        <g clip-path="url(#c)" filter="url(#d)">
            <g clip-path="url(#b)">
                <path d="m 28 15.503906 h 72 c 4.417969 0 8 3.582032 8 8 v 88 c 0 4.417969 -3.582031 8 -8 8 h -72 c -4.417969 0 -8 -3.582031 -8 -8 v -88 c 0 -4.417968 3.582031 -8 8 -8 z m 0 0" fill="url(#a)"/>
                <path d="m 28 7.503906 h 72 c 4.417969 0 8 3.582032 8 8 v 92 c 0 4.417969 -3.582031 8 -8 8 h -72 c -4.417969 0 -8 -3.582031 -8 -8 v -92 c 0 -4.417968 3.582031 -8 8 -8 z m 0 0" fill="#ff7800"/>
                <use x="28.605469" xlink:href="#j" y="104.879883"/>
            </g>
        </g>
    </mask>
    <mask id="f">
        <g filter="url(#d)">
            <rect fill-opacity="0.8" height="128" width="128"/>
        </g>
    </mask>
    <linearGradient id="g" gradientTransform="matrix(0 0.37 -0.98462 0 295.38501 -30.360001)" gradientUnits="userSpaceOnUse" x1="300" x2="428" y1="235" y2="235">
        <stop offset="0" stop-color="#f9f06b"/>
        <stop offset="1" stop-color="#f5c211"/>
    </linearGradient>
    <clipPath id="h">
        <rect height="128" width="128"/>
    </clipPath>
    <clipPath id="i">
        <rect height="128" width="128"/>
    </clipPath>
    <symbol id="j" overflow="visible">
        <path d="m 11.28125 -3.90625 l -2.6875 -2.6875 v -35.90625 h 2.34375 l 0.34375 0.421875 l 5.375 5.296875 v 27.5 z m 0 -40.765625 l -0.34375 0.421875 h -2.34375 v -35.90625 l 2.6875 -2.6875 l 5.375 5.375 v 27.5 z m 1.203125 -39.390625 l 2.703125 -2.6875 h 40.421875 l 2.6875 2.6875 l -5.375 5.375 h -35.046875 z m 45.71875 40.78125 l -4.078125 3.984375 v -0.09375 h -37.46875 v 0.09375 l -4.171875 -4.078125 l 4.171875 -4.078125 v 0.09375 h 37.46875 z m 1.21875 1.203125 l 0.4375 -0.34375 h 2.34375 v 35.828125 l -2.6875 2.6875 l -5.390625 -5.375 v -27.5 z m 0.09375 -40.765625 l 2.6875 2.6875 v 35.90625 h -2.34375 l -0.4375 -0.34375 l -5.296875 -5.28125 v -27.59375 z m -1.21875 80.15625 l -2.6875 2.6875 h -40.421875 l -2.703125 -2.6875 l 5.390625 -5.375 h 35.046875 z m 0 0"/>
    </symbol>
    <path d="m 28 15.503906 h 72 c 4.417969 0 8 3.582032 8 8 v 88 c 0 4.417969 -3.582031 8 -8 8 h -72 c -4.417969 0 -8 -3.582031 -8 -8 v -88 c 0 -4.417968 3.582031 -8 8 -8 z m 0 0" fill="url(#a)"/>
    <path d="m 28 7.503906 h 72 c 4.417969 0 8 3.582032 8 8 v 92 c 0 4.417969 -3.582031 8 -8 8 h -72 c -4.417969 0 -8 -3.582031 -8 -8 v -92 c 0 -4.417968 3.582031 -8 8 -8 z m 0 0" fill="#ff7800"/>
    <use x="28.605469" xlink:href="#j" y="104.879883"/>
    <g clip-path="url(#i)" mask="url(#e)">
        <g clip-path="url(#h)" mask="url(#f)">
            <path d="m 128 80.640625 v 47.359375 h -128 v -47.359375 z m 0 0" fill="url(#g)"/>
            <path d="m 13.308594 80.640625 l 47.355468 47.359375 h 21.214844 l -47.359375 -47.359375 z m 42.421875 0 l 47.363281 47.359375 h 21.214844 l -47.363282 -47.359375 z m 42.429687 0 l 29.839844 29.839844 v -21.210938 l -8.628906 -8.628906 z m -98.160156 7.90625 v 21.214844 l 18.238281 18.238281 h 21.214844 z m 0 0"/>
        </g>
    </g>
</svg>
