<?xml version="1.0" encoding="UTF-8"?>
<svg height="16px" viewBox="0 0 16 16" width="16px" xmlns="http://www.w3.org/2000/svg" xmlns:xlink="http://www.w3.org/1999/xlink">
    <symbol id="a" overflow="visible">
        <path d="m 9.234375 -9 l 1.015625 1.015625 l -0.984375 0.96875 h -5.46875 l -1 -0.984375 l 1 -1 z m -6.65625 0.75 l -0.0625 0.078125 h -0.9375 v -6.625 l 0.5 -0.5 l 1.5 1.484375 v 4.59375 z m -0.5 7.53125 l -0.5 -0.5 v -6.625 h 0.9375 l 0.0625 0.078125 l 1 0.96875 v 4.59375 z m 0.234375 -14.796875 l 0.484375 -0.5 h 7.46875 l 0.5 0.5 l -1.5 1.484375 h -5.46875 z m 8.171875 7.75 l 0.0625 -0.0625 h 0.9375 v 6.609375 l -0.5 0.5 l -1.484375 -1.484375 v -4.59375 z m 0.5 -7.53125 l 0.5 0.5 v 6.625 h -0.9375 l -0.0625 -0.0625 l -0.984375 -0.96875 v -4.609375 z m -0.21875 14.796875 l -0.5 0.5 h -7.46875 l -0.484375 -0.5 l 1.484375 -1.484375 h 5.46875 z m 0 0"/>
    </symbol>
    <use x="1.464844" xlink:href="#a" y="16.008789"/>
</svg>
