<?xml version="1.0" encoding="UTF-8"?>
<svg height="128px" viewBox="0 0 128 128" width="128px" xmlns="http://www.w3.org/2000/svg" xmlns:xlink="http://www.w3.org/1999/xlink">
    <linearGradient id="a" gradientTransform="matrix(0.196428 0 0 0.342105 2.597321 273.244812)" gradientUnits="userSpaceOnUse" x1="88.595886" x2="536.595886" y1="-449.394012" y2="-449.394012">
        <stop offset="0" stop-color="#c64600"/>
        <stop offset="0.0500001" stop-color="#ffa348"/>
        <stop offset="0.099807" stop-color="#e66100"/>
        <stop offset="0.900001" stop-color="#e66100"/>
        <stop offset="0.950001" stop-color="#ffa348"/>
        <stop offset="1" stop-color="#c64600"/>
    </linearGradient>
    <symbol id="b" overflow="visible">
        <path d="m 11.28125 -3.90625 l -2.6875 -2.6875 v -35.90625 h 2.34375 l 0.34375 0.421875 l 5.375 5.296875 v 27.5 z m 0 -40.765625 l -0.34375 0.421875 h -2.34375 v -35.90625 l 2.6875 -2.6875 l 5.375 5.375 v 27.5 z m 1.203125 -39.390625 l 2.703125 -2.6875 h 40.421875 l 2.6875 2.6875 l -5.375 5.375 h -35.046875 z m 45.71875 40.78125 l -4.078125 3.984375 v -0.09375 h -37.46875 v 0.09375 l -4.171875 -4.078125 l 4.171875 -4.078125 v 0.09375 h 37.46875 z m 1.21875 1.203125 l 0.4375 -0.34375 h 2.34375 v 35.828125 l -2.6875 2.6875 l -5.390625 -5.375 v -27.5 z m 0.09375 -40.765625 l 2.6875 2.6875 v 35.90625 h -2.34375 l -0.4375 -0.34375 l -5.296875 -5.28125 v -27.59375 z m -1.21875 80.15625 l -2.6875 2.6875 h -40.421875 l -2.703125 -2.6875 l 5.390625 -5.375 h 35.046875 z m 0 0"/>
    </symbol>
    <path d="m 28 15.503906 h 72 c 4.417969 0 8 3.582032 8 8 v 88 c 0 4.417969 -3.582031 8 -8 8 h -72 c -4.417969 0 -8 -3.582031 -8 -8 v -88 c 0 -4.417968 3.582031 -8 8 -8 z m 0 0" fill="url(#a)"/>
    <path d="m 28 7.503906 h 72 c 4.417969 0 8 3.582032 8 8 v 92 c 0 4.417969 -3.582031 8 -8 8 h -72 c -4.417969 0 -8 -3.582031 -8 -8 v -92 c 0 -4.417968 3.582031 -8 8 -8 z m 0 0" fill="#ff7800"/>
    <use x="28.605469" xlink:href="#b" y="104.879883"/>
</svg>
